<svg width="1023" height="786" viewBox="0 0 1023 786" fill="none" xmlns="http://www.w3.org/2000/svg">
<path opacity="0.1" d="M468.63 693.88C703.351 693.88 893.63 679.105 893.63 660.88C893.63 642.655 703.351 627.88 468.63 627.88C233.909 627.88 43.63 642.655 43.63 660.88C43.63 679.105 233.909 693.88 468.63 693.88Z" fill="#00B0FF"/>
<g opacity="0.1">
<path opacity="0.1" d="M89.49 511.24C90.77 507.35 95.96 505.56 101.08 507.24C101.816 507.481 102.529 507.789 103.21 508.16C103.54 508.07 103.88 507.99 104.21 507.93C103.929 506.813 103.821 505.66 103.89 504.51C102.132 503.321 100.708 501.704 99.7503 499.81C98.793 497.917 98.3351 495.81 98.42 493.69C96.6471 492.523 95.2178 490.904 94.28 489C93.3028 487.114 92.8438 485.002 92.95 482.88C91.1783 481.707 89.7496 480.086 88.81 478.18C86.35 473.3 87.35 467.81 91.1 465.91C94.85 464.01 99.87 466.46 102.34 471.34C103.316 473.23 103.771 475.346 103.66 477.47C105.422 478.651 106.851 480.266 107.809 482.159C108.767 484.053 109.222 486.16 109.13 488.28C110.892 489.464 112.32 491.081 113.278 492.976C114.235 494.87 114.691 496.979 114.6 499.1C116.362 500.281 117.791 501.896 118.749 503.789C119.707 505.683 120.162 507.79 120.07 509.91C121.845 511.081 123.278 512.703 124.22 514.61C124.67 515.533 125.005 516.506 125.22 517.51C125.836 516.603 126.588 515.797 127.45 515.12C127.553 514.349 127.727 513.589 127.97 512.85C129.66 507.73 134.17 504.61 138.06 505.85C141.95 507.09 143.73 512.32 142.06 517.44C141.37 519.639 140.044 521.584 138.25 523.03C138.146 523.798 137.972 524.554 137.73 525.29C136.909 528.004 135.081 530.301 132.62 531.71C132.813 532.364 132.953 533.033 133.04 533.71C134.072 534.701 134.928 535.861 135.57 537.14C136.224 538.416 136.651 539.797 136.83 541.22C137.866 542.21 138.725 543.37 139.37 544.65C140.023 545.927 140.449 547.307 140.63 548.73C141.669 549.722 142.528 550.885 143.17 552.17C145.64 557.05 144.62 562.55 140.89 564.43C137.16 566.31 132.12 563.89 129.65 559C128.999 557.722 128.572 556.342 128.39 554.92C126.307 552.921 124.966 550.272 124.59 547.41C122.507 545.411 121.166 542.762 120.79 539.9C119.754 538.909 118.895 537.749 118.25 536.47C117.603 535.191 117.177 533.811 116.99 532.39C115.958 531.399 115.102 530.239 114.46 528.96C113.806 527.684 113.379 526.303 113.2 524.88C112.556 524.28 111.983 523.609 111.49 522.88C109.433 523.301 107.3 523.17 105.31 522.5C104.571 522.253 103.855 521.942 103.17 521.57C100.946 522.161 98.5965 522.077 96.42 521.33C91.35 519.64 88.22 515.13 89.49 511.24Z" fill="#3F3D56"/>
<g opacity="0.1">
<path opacity="0.1" d="M98.52 495.91C99.0501 496.432 99.6333 496.898 100.26 497.3C100.175 498.736 100.365 500.175 100.82 501.54C100.418 500.994 100.064 500.416 99.76 499.81C99.1345 498.587 98.7155 497.269 98.52 495.91V495.91Z" fill="black"/>
<path opacity="0.1" d="M93.05 485.11C93.5829 485.626 94.1657 486.089 94.79 486.49C94.706 487.929 94.896 489.372 95.35 490.74C94.1387 489.077 93.3494 487.145 93.05 485.11V485.11Z" fill="black"/>
<path opacity="0.1" d="M105.48 481.08C105.528 480.339 105.501 479.595 105.4 478.86C106.378 479.825 107.192 480.943 107.81 482.17C108.112 482.776 108.366 483.405 108.57 484.05C107.737 482.874 106.688 481.866 105.48 481.08V481.08Z" fill="black"/>
<path opacity="0.1" d="M140.18 546.54C139.743 545.927 139.247 545.357 138.7 544.84C138.609 544.162 138.462 543.493 138.26 542.84C138.694 543.427 139.079 544.049 139.41 544.7C139.713 545.293 139.971 545.908 140.18 546.54V546.54Z" fill="black"/>
<path opacity="0.1" d="M136.35 539.03C135.913 538.417 135.417 537.847 134.87 537.33C134.788 536.652 134.648 535.983 134.45 535.33C135.274 536.445 135.909 537.689 136.33 539.01L136.35 539.03Z" fill="black"/>
<path opacity="0.1" d="M104 506.75C104.525 507.268 105.105 507.728 105.73 508.12C105.655 509.27 105.763 510.424 106.05 511.54C105.713 511.6 105.379 511.676 105.05 511.77C104.365 511.401 103.649 511.093 102.91 510.85C97.79 509.17 92.6 510.96 91.33 514.85C91.0117 515.818 90.9531 516.852 91.16 517.85C90.3373 516.985 89.7521 515.921 89.4613 514.763C89.1704 513.605 89.1838 512.391 89.5 511.24C90.78 507.35 95.97 505.56 101.09 507.24C101.826 507.481 102.539 507.789 103.22 508.16C103.55 508.07 103.89 507.99 104.22 507.93C104.124 507.541 104.05 507.147 104 506.75V506.75Z" fill="black"/>
<path opacity="0.1" d="M142.06 550.31C142.496 550.899 142.881 551.525 143.21 552.18C143.515 552.786 143.773 553.414 143.98 554.06C143.543 553.444 143.047 552.871 142.5 552.35C142.411 551.659 142.264 550.976 142.06 550.31V550.31Z" fill="black"/>
<path opacity="0.1" d="M110.95 491.91C110.998 491.169 110.971 490.425 110.87 489.69C111.85 490.653 112.664 491.772 113.28 493C113.582 493.603 113.836 494.228 114.04 494.87C113.206 493.697 112.158 492.692 110.95 491.91V491.91Z" fill="black"/>
<path opacity="0.1" d="M118.86 536.01C118.954 536.757 119.118 537.494 119.35 538.21C118.517 537.067 117.881 535.793 117.47 534.44C117.885 535.004 118.351 535.529 118.86 536.01V536.01Z" fill="black"/>
<path opacity="0.1" d="M126.45 551.03C126.551 551.777 126.718 552.513 126.95 553.23C126.548 552.684 126.194 552.106 125.89 551.5C125.561 550.857 125.287 550.188 125.07 549.5C125.489 550.046 125.95 550.557 126.45 551.03V551.03Z" fill="black"/>
<path opacity="0.1" d="M122.66 543.52C122.754 544.267 122.918 545.004 123.15 545.72C122.752 545.172 122.397 544.594 122.09 543.99C121.76 543.348 121.485 542.679 121.27 541.99C121.687 542.54 122.152 543.052 122.66 543.52V543.52Z" fill="black"/>
<path opacity="0.1" d="M115.06 528.49C115.152 529.241 115.317 529.981 115.55 530.7C115.171 530.151 114.836 529.573 114.55 528.97C114.215 528.329 113.937 527.66 113.72 526.97C114.119 527.516 114.568 528.025 115.06 528.49V528.49Z" fill="black"/>
<path opacity="0.1" d="M139.93 509.5C136.04 508.22 131.53 511.34 129.85 516.5C129.607 517.239 129.433 517.999 129.33 518.77C128.465 519.443 127.709 520.246 127.09 521.15C126.858 520.145 126.505 519.171 126.04 518.25C125.87 517.91 125.68 517.58 125.48 517.25C126.048 516.462 126.721 515.755 127.48 515.15C127.583 514.379 127.757 513.619 128 512.88C129.69 507.76 134.2 504.64 138.09 505.88C139.205 506.308 140.191 507.018 140.952 507.939C141.712 508.861 142.221 509.963 142.43 511.14C141.75 510.389 140.89 509.824 139.93 509.5V509.5Z" fill="black"/>
<path opacity="0.1" d="M121.89 513.53C121.938 512.789 121.911 512.045 121.81 511.31C122.79 512.273 123.604 513.392 124.22 514.62C124.522 515.226 124.776 515.855 124.98 516.5C124.149 515.322 123.1 514.313 121.89 513.53V513.53Z" fill="black"/>
<path opacity="0.1" d="M116.42 502.71C116.467 501.969 116.441 501.226 116.34 500.49C117.315 501.457 118.129 502.575 118.75 503.8C119.052 504.406 119.306 505.035 119.51 505.68C118.677 504.504 117.628 503.496 116.42 502.71V502.71Z" fill="black"/>
<path opacity="0.1" d="M130.25 558.54C130.346 559.291 130.513 560.031 130.75 560.75C130.35 560.2 129.996 559.618 129.69 559.01C129.361 558.367 129.087 557.698 128.87 557.01C129.289 557.556 129.75 558.067 130.25 558.54Z" fill="black"/>
</g>
<path opacity="0.1" d="M82.02 461.25C80.247 460.083 78.8178 458.464 77.88 456.56C75.41 451.67 76.43 446.18 80.16 444.29C83.89 442.4 88.93 444.83 91.4 449.72C92.377 451.606 92.8327 453.719 92.72 455.84C94.4817 457.024 95.9098 458.641 96.8675 460.536C97.8253 462.43 98.2806 464.539 98.19 466.66C99.964 467.828 101.396 469.447 102.34 471.35C102.64 471.95 102.894 472.572 103.1 473.21C101.775 471.32 99.8682 469.915 97.67 469.21C97.4251 469.991 97.027 470.716 96.4989 471.341C95.9709 471.967 95.3234 472.481 94.5944 472.853C93.8654 473.226 93.0694 473.449 92.2531 473.51C91.4368 473.571 90.6164 473.469 89.84 473.21C89.0986 475.399 89.0986 477.771 89.84 479.96C89.4643 479.416 89.13 478.844 88.84 478.25C87.8627 476.364 87.4038 474.252 87.51 472.13C85.7504 470.943 84.3238 469.326 83.3663 467.432C82.4088 465.538 81.9522 463.431 82.04 461.31L82.02 461.25Z" fill="#3F3D56"/>
<path opacity="0.1" d="M21.9 391.91C20.3831 391.201 18.9164 390.389 17.51 389.48L33.79 377.58L14.65 387.43C10.7801 384.353 7.57885 380.518 5.2421 376.161C2.90536 371.804 1.48229 367.016 1.05999 362.09L33.6 362.43L0.98999 356.97C1.27078 351.995 2.57301 347.132 4.81555 342.682C7.0581 338.233 10.1929 334.293 14.0247 331.107C17.8564 327.922 22.3031 325.56 27.0875 324.169C31.8719 322.777 36.8917 322.386 41.834 323.019C46.7762 323.652 51.5352 325.297 55.8143 327.849C60.0934 330.402 63.801 333.809 66.7061 337.857C69.6112 341.905 71.6515 346.508 72.6999 351.379C73.7483 356.25 73.7824 361.285 72.8 366.17C75.1621 367.263 77.4013 368.604 79.48 370.17L62.48 393.81L82.89 373.13C87.1968 377.361 90.3812 382.598 92.1552 388.368C93.9291 394.139 94.2367 400.261 93.05 406.18C99.2241 409.056 104.464 413.611 108.171 419.325C111.878 425.039 113.903 431.68 114.013 438.491C114.123 445.301 112.314 452.004 108.793 457.835C105.273 463.665 100.182 468.387 94.1042 471.461C88.0261 474.535 81.2058 475.836 74.423 475.216C67.6403 474.596 61.169 472.079 55.7492 467.954C50.3293 463.829 46.1797 458.262 43.7748 451.89C41.3699 445.518 40.8068 438.597 42.15 431.92C34.7809 428.486 28.7789 422.676 25.1068 415.422C21.4347 408.169 20.3054 399.892 21.9 391.92V391.91Z" fill="#00B0FF"/>
<path opacity="0.1" d="M89.85 382.69C93.5381 389.949 94.6658 398.24 93.05 406.22C99.2241 409.096 104.464 413.651 108.171 419.365C111.878 425.079 113.903 431.72 114.013 438.531C114.123 445.341 112.314 452.044 108.793 457.875C105.273 463.705 100.182 468.427 94.1042 471.501C88.0262 474.575 81.2058 475.876 74.4231 475.256C67.6404 474.636 61.1691 472.119 55.7492 467.994C50.3293 463.869 46.1797 458.302 43.7748 451.93C41.3699 445.558 40.8069 438.637 42.15 431.96C35.02 428.65 88.02 379.06 89.85 382.69Z" fill="black"/>
<path opacity="0.1" d="M48.97 330.17C51.9468 330.17 54.36 327.757 54.36 324.78C54.36 321.803 51.9468 319.39 48.97 319.39C45.9932 319.39 43.58 321.803 43.58 324.78C43.58 327.757 45.9932 330.17 48.97 330.17Z" fill="#00B0FF"/>
<path opacity="0.1" d="M17.51 333.63C20.4868 333.63 22.9 331.217 22.9 328.24C22.9 325.263 20.4868 322.85 17.51 322.85C14.5332 322.85 12.12 325.263 12.12 328.24C12.12 331.217 14.5332 333.63 17.51 333.63Z" fill="#00B0FF"/>
<path opacity="0.1" d="M5.39 382.02C8.36681 382.02 10.78 379.607 10.78 376.63C10.78 373.653 8.36681 371.24 5.39 371.24C2.41319 371.24 0 373.653 0 376.63C0 379.607 2.41319 382.02 5.39 382.02Z" fill="#00B0FF"/>
<path opacity="0.1" d="M21.76 406.19C24.7368 406.19 27.15 403.777 27.15 400.8C27.15 397.823 24.7368 395.41 21.76 395.41C18.7832 395.41 16.37 397.823 16.37 400.8C16.37 403.777 18.7832 406.19 21.76 406.19Z" fill="#00B0FF"/>
<path opacity="0.1" d="M44.12 456.38C47.0968 456.38 49.51 453.967 49.51 450.99C49.51 448.013 47.0968 445.6 44.12 445.6C41.1432 445.6 38.73 448.013 38.73 450.99C38.73 453.967 41.1432 456.38 44.12 456.38Z" fill="#00B0FF"/>
<path opacity="0.1" d="M44.12 456.38C47.0968 456.38 49.51 453.967 49.51 450.99C49.51 448.013 47.0968 445.6 44.12 445.6C41.1432 445.6 38.73 448.013 38.73 450.99C38.73 453.967 41.1432 456.38 44.12 456.38Z" fill="black"/>
<path opacity="0.1" d="M93.85 399.53C96.8268 399.53 99.24 397.117 99.24 394.14C99.24 391.163 96.8268 388.75 93.85 388.75C90.8732 388.75 88.46 391.163 88.46 394.14C88.46 397.117 90.8732 399.53 93.85 399.53Z" fill="#00B0FF"/>
<path opacity="0.1" d="M93.85 399.53C96.8268 399.53 99.24 397.117 99.24 394.14C99.24 391.163 96.8268 388.75 93.85 388.75C90.8732 388.75 88.46 391.163 88.46 394.14C88.46 397.117 90.8732 399.53 93.85 399.53Z" fill="black"/>
<path opacity="0.1" d="M99.6 482.72C103.18 480.91 104.26 475.79 102.17 471.06C102.28 471.26 102.39 471.45 102.49 471.65C104.96 476.54 103.94 482.03 100.2 483.92C96.46 485.81 91.44 483.38 88.97 478.49C88.87 478.29 88.77 478.09 88.68 477.88C91.25 482.37 96.02 484.53 99.6 482.72Z" fill="black"/>
<path opacity="0.1" d="M104.91 493.24C108.49 491.43 109.58 486.3 107.49 481.58C107.6 481.77 107.71 481.97 107.81 482.17C110.28 487.06 109.26 492.55 105.52 494.44C101.78 496.33 96.76 493.9 94.29 489.01C94.18 488.81 94.09 488.6 94 488.4C96.57 492.91 101.35 495.05 104.91 493.24Z" fill="black"/>
<path opacity="0.1" d="M110.23 503.75C113.81 501.94 114.9 496.82 112.8 492.09C112.92 492.29 113.02 492.48 113.13 492.69C115.6 497.57 114.57 503.07 110.84 504.95C107.11 506.83 102.08 504.41 99.61 499.52C99.5 499.32 99.41 499.12 99.32 498.91C101.88 503.4 106.65 505.56 110.23 503.75Z" fill="black"/>
<path opacity="0.1" d="M115.55 514.27C119.13 512.46 120.22 507.34 118.12 502.61C118.23 502.8 118.34 503 118.44 503.2C120.92 508.09 119.89 513.58 116.16 515.47C112.43 517.36 107.39 514.93 104.92 510.04C104.82 509.84 104.73 509.63 104.64 509.43C107.2 513.91 111.97 516.08 115.55 514.27Z" fill="black"/>
<path opacity="0.1" d="M120.87 524.78C124.45 522.97 125.53 517.85 123.44 513.13C123.55 513.32 123.66 513.52 123.76 513.72C126.23 518.61 125.21 524.1 121.48 525.99C117.75 527.88 112.71 525.44 110.24 520.56C110.14 520.35 110.05 520.15 109.95 519.95C112.52 524.43 117.29 526.59 120.87 524.78Z" fill="black"/>
<path opacity="0.1" d="M126.19 535.3C129.77 533.49 130.85 528.37 128.76 523.64C128.87 523.84 128.98 524.03 129.08 524.23C131.55 529.12 130.53 534.61 126.8 536.5C123.07 538.39 118.03 535.96 115.56 531.07C115.46 530.87 115.36 530.67 115.27 530.46C117.84 534.91 122.61 537.11 126.19 535.3Z" fill="black"/>
<path opacity="0.1" d="M131.51 545.82C135.08 544.01 136.17 538.88 134.08 534.16C134.19 534.35 134.3 534.55 134.4 534.75C136.87 539.64 135.85 545.13 132.11 547.02C128.37 548.91 123.35 546.47 120.88 541.59C120.78 541.38 120.68 541.18 120.59 540.98C123.16 545.46 127.93 547.63 131.51 545.82Z" fill="black"/>
<path opacity="0.1" d="M136.82 556.33C140.4 554.52 141.49 549.4 139.39 544.67C139.51 544.87 139.61 545.06 139.72 545.27C142.19 550.15 141.16 555.65 137.43 557.53C133.7 559.41 128.67 556.99 126.2 552.1C126.09 551.9 126 551.7 125.91 551.49C128.48 555.98 133.24 558.14 136.82 556.33Z" fill="black"/>
<path opacity="0.1" d="M140.35 563.24C143.93 561.43 145.01 556.31 142.92 551.58C143.03 551.78 143.14 551.97 143.24 552.18C145.71 557.06 144.69 562.56 140.96 564.44C137.23 566.32 132.19 563.9 129.72 559.01C129.62 558.81 129.52 558.61 129.43 558.4C131.97 562.91 136.74 565.05 140.35 563.24Z" fill="black"/>
<path opacity="0.1" d="M44.21 516.44C43.6546 514.85 43.3182 513.191 43.21 511.51C42.8402 511.509 42.4747 511.431 42.1362 511.282C41.7978 511.133 41.4936 510.916 41.2428 510.645C40.992 510.373 40.7999 510.052 40.6785 509.703C40.5572 509.354 40.5091 508.983 40.5373 508.614C40.5656 508.246 40.6696 507.887 40.8427 507.56C41.0159 507.233 41.2546 506.946 41.5439 506.716C41.8332 506.485 42.1668 506.317 42.5241 506.221C42.8813 506.126 43.2543 506.105 43.62 506.16C44.22 503.434 45.4187 500.876 47.1292 498.671C48.8397 496.466 51.0193 494.669 53.51 493.41C53.1878 492.772 53.1321 492.032 53.3553 491.354C53.5784 490.675 54.0622 490.112 54.7 489.79C55.3378 489.468 56.0776 489.412 56.7565 489.635C57.4353 489.858 57.9978 490.342 58.32 490.98C58.4371 491.206 58.518 491.449 58.56 491.7C61.519 491.157 64.5649 491.327 67.4449 492.197C70.3249 493.066 72.9561 494.61 75.12 496.7C76.7729 496.429 78.4546 496.382 80.12 496.56L82.3 506.48L82.35 496.91C84.8294 497.483 87.1672 498.552 89.2223 500.053C91.2773 501.554 93.0072 503.456 94.3076 505.643C95.608 507.831 96.452 510.259 96.7887 512.782C97.1255 515.304 96.9479 517.869 96.2669 520.321C95.5858 522.773 94.4153 525.061 92.8258 527.049C91.2364 529.036 89.261 530.681 87.0188 531.885C84.7765 533.088 82.3137 533.825 79.779 534.051C77.2442 534.277 74.6899 533.988 72.27 533.2C72.0068 533.665 71.6142 534.044 71.14 534.29C70.6457 534.539 70.0867 534.631 69.5387 534.552C68.9907 534.473 68.4802 534.228 68.0764 533.849C67.6725 533.47 67.3949 532.977 67.2811 532.435C67.1672 531.893 67.2227 531.329 67.44 530.82C66.5825 530.221 65.7764 529.552 65.03 528.82C61.0965 529.457 57.0623 528.833 53.5055 527.037C49.9487 525.24 47.0518 522.364 45.23 518.82L55.38 517.11L44.21 516.44Z" fill="#00B0FF"/>
<g opacity="0.1">
<path opacity="0.1" d="M59.89 521.26C63.64 516.26 65.94 510.46 68.58 504.84C69.6372 502.527 70.8258 500.277 72.14 498.1L74.14 495.79C74.48 496.08 74.81 496.37 75.14 496.67C76.7928 496.399 78.4746 496.352 80.14 496.53L82.32 506.45L82.35 496.91C84.8294 497.483 87.1672 498.552 89.2222 500.053C91.2773 501.554 93.0072 503.456 94.3076 505.643C95.608 507.831 96.452 510.259 96.7887 512.782C97.1254 515.304 96.9479 517.869 96.2668 520.321C95.5858 522.773 94.4152 525.061 92.8258 527.049C91.2364 529.036 89.261 530.681 87.0187 531.885C84.7765 533.088 82.3137 533.825 79.7789 534.051C77.2442 534.277 74.6898 533.988 72.27 533.2C72.0068 533.665 71.6142 534.044 71.14 534.29C70.6457 534.539 70.0867 534.631 69.5387 534.552C68.9907 534.473 68.4802 534.228 68.0764 533.849C67.6725 533.47 67.3949 532.977 67.281 532.435C67.1672 531.893 67.2227 531.329 67.44 530.82C66.5825 530.221 65.7764 529.552 65.03 528.82C61.1779 529.438 57.2291 528.855 53.72 527.15C56.0802 525.531 58.1637 523.543 59.89 521.26Z" fill="black"/>
</g>
<path opacity="0.1" d="M126.26 500C126.1 499.685 126.004 499.342 125.977 498.989C125.95 498.637 125.994 498.283 126.104 497.948C126.215 497.612 126.391 497.302 126.622 497.034C126.853 496.767 127.134 496.548 127.45 496.39C127.827 496.197 128.246 496.097 128.67 496.1C129.433 492.05 131.502 488.362 134.56 485.6C134.065 483.678 133.88 481.69 134.01 479.71L143.9 478.05L134.29 477.44C134.464 476.537 134.705 475.648 135.01 474.78C134.632 474.529 134.326 474.184 134.12 473.78C133.88 473.298 133.789 472.756 133.859 472.222C133.929 471.688 134.157 471.187 134.514 470.784C134.871 470.381 135.34 470.094 135.862 469.96C136.383 469.825 136.933 469.85 137.44 470.03C139.206 467.517 141.566 465.48 144.31 464.1C147.542 462.46 151.178 461.787 154.783 462.162C158.387 462.536 161.807 463.942 164.633 466.212C167.458 468.481 169.57 471.517 170.713 474.956C171.857 478.395 171.984 482.091 171.08 485.6C171.55 485.801 171.953 486.133 172.241 486.555C172.53 486.977 172.692 487.473 172.709 487.984C172.726 488.495 172.596 489.001 172.336 489.441C172.076 489.881 171.696 490.238 171.24 490.47C170.898 490.643 170.524 490.742 170.141 490.759C169.758 490.776 169.376 490.712 169.02 490.57C168.055 492.188 166.851 493.651 165.45 494.91C166.475 498.898 166.169 503.112 164.58 506.91L151.35 503.43L163.18 509.66C161.404 512.494 158.906 514.805 155.942 516.356C152.979 517.907 149.656 518.641 146.315 518.484C142.974 518.328 139.734 517.285 136.929 515.464C134.124 513.643 131.853 511.108 130.35 508.12C129.304 506.04 128.646 503.786 128.41 501.47C127.956 501.429 127.52 501.272 127.144 501.015C126.767 500.758 126.463 500.408 126.26 500V500Z" fill="#00B0FF"/>
<path opacity="0.1" d="M126.26 500C126.1 499.685 126.004 499.342 125.977 498.989C125.95 498.637 125.994 498.283 126.104 497.948C126.215 497.612 126.391 497.302 126.622 497.034C126.853 496.767 127.134 496.548 127.45 496.39C127.827 496.197 128.246 496.097 128.67 496.1C129.433 492.05 131.502 488.362 134.56 485.6C134.48 485.29 134.41 484.97 134.35 484.66C134.709 484.916 135.043 485.204 135.35 485.52C137.14 487.52 138.06 490.11 139.82 492.09C142.025 494.365 144.99 495.749 148.15 495.98C151.28 496.195 154.425 495.943 157.48 495.23C160 494.581 162.599 494.295 165.2 494.38L165.94 494.48L165.48 494.91C166.505 498.898 166.199 503.112 164.61 506.91L151.35 503.43L163.18 509.66C161.404 512.494 158.906 514.805 155.942 516.356C152.979 517.907 149.656 518.641 146.315 518.484C142.974 518.328 139.734 517.285 136.929 515.464C134.124 513.643 131.853 511.108 130.35 508.12C129.304 506.04 128.646 503.786 128.41 501.47C127.956 501.429 127.52 501.272 127.144 501.015C126.767 500.758 126.463 500.408 126.26 500V500Z" fill="black"/>
</g>
<path opacity="0.1" d="M346.35 51.91C342.396 51.1595 338.309 51.6052 334.61 53.19C332.391 54.1788 329.989 54.6898 327.56 54.6898C325.131 54.6898 322.729 54.1788 320.51 53.19C317.888 52.0405 315.047 51.4746 312.184 51.5316C309.321 51.5885 306.505 52.267 303.93 53.52C302.46 54.2966 300.823 54.705 299.16 54.71C292.44 54.71 286.85 47.94 285.69 39.01C287.03 38.0279 288.17 36.7993 289.05 35.39C292.99 29.04 299.05 24.96 305.94 24.96C312.83 24.96 318.83 28.96 322.77 35.27C323.947 37.165 325.592 38.7252 327.546 39.8005C329.501 40.8758 331.699 41.4301 333.93 41.41H334.11C339.41 41.38 344.04 45.67 346.35 51.91Z" fill="#00B0FF"/>
<path opacity="0.1" d="M366.77 23.91L355.91 30.8L362.5 18.8C360.631 17.3109 358.319 16.4874 355.93 16.46H355.76C355.006 16.4692 354.254 16.4123 353.51 16.29L349.82 18.63L351.4 15.76C348.8 14.8551 346.548 13.1592 344.96 10.91L338.35 15.04L342.51 7.47C338.66 2.84 333.46 0 327.75 0C320.9 0 314.75 4.08 310.85 10.43C309.683 12.3267 308.035 13.8809 306.073 14.9347C304.111 15.9884 301.906 16.5044 299.68 16.43H299.35C291.79 16.43 285.65 25 285.65 35.59C285.65 46.18 291.79 54.74 299.35 54.74C301.013 54.735 302.65 54.3266 304.12 53.55C306.695 52.296 309.511 51.6177 312.375 51.5625C315.238 51.5072 318.079 52.0762 320.7 53.23C322.92 54.2157 325.321 54.725 327.75 54.725C330.179 54.725 332.58 54.2157 334.8 53.23C337.401 52.1007 340.215 51.5448 343.05 51.6C345.885 51.6553 348.675 52.3203 351.23 53.55C352.689 54.3058 354.307 54.7035 355.95 54.71C363.52 54.71 369.65 46.14 369.65 35.56C369.677 31.4973 368.687 27.4924 366.77 23.91V23.91Z" fill="#00B0FF"/>
<path opacity="0.1" d="M120.35 190.45C114.703 189.382 108.866 190.015 103.58 192.27C100.408 193.676 96.9747 194.399 93.5047 194.39C90.0346 194.381 86.6053 193.642 83.44 192.22C79.6946 190.578 75.6371 189.769 71.5483 189.851C67.4595 189.932 63.4373 190.901 59.76 192.69C57.6569 193.798 55.3171 194.381 52.94 194.39C43.34 194.39 35.35 184.72 33.69 171.96C35.6083 170.562 37.2382 168.807 38.49 166.79C44.12 157.72 52.84 151.89 62.63 151.89C72.42 151.89 81.03 157.65 86.63 166.62C88.313 169.339 90.6712 171.575 93.4751 173.112C96.2789 174.649 99.4329 175.434 102.63 175.39H102.88C110.46 175.38 117.08 181.51 120.35 190.45Z" fill="#00B0FF"/>
<path opacity="0.1" d="M149.55 150.4L134.03 160.24L143.45 143.11C140.78 140.979 137.476 139.8 134.06 139.76H133.81C132.732 139.776 131.654 139.695 130.59 139.52L125.35 142.91L127.61 138.81C123.881 137.507 120.66 135.056 118.41 131.81L108.99 137.81L114.92 126.91C109.41 120.3 101.99 116.25 93.83 116.25C84.04 116.25 75.32 122.07 69.69 131.14C68.0225 133.862 65.6631 136.092 62.8523 137.605C60.0416 139.118 56.88 139.858 53.69 139.75H53.16C42.35 139.75 33.59 152 33.59 167.12C33.59 182.24 42.35 194.49 53.16 194.49C55.5386 194.484 57.8797 193.897 59.98 192.78C63.658 190.992 67.6806 190.025 71.7694 189.946C75.8581 189.866 79.9153 190.676 83.66 192.32C86.8253 193.742 90.2546 194.481 93.7246 194.49C97.1947 194.499 100.628 193.776 103.8 192.37C107.517 190.757 111.538 189.962 115.589 190.04C119.64 190.117 123.627 191.065 127.28 192.82C129.36 193.909 131.672 194.482 134.02 194.49C144.83 194.49 153.59 182.23 153.59 167.12C153.665 161.296 152.276 155.547 149.55 150.4V150.4Z" fill="#00B0FF"/>
<path opacity="0.1" d="M747.97 90.91C751.924 90.1601 756.011 90.6057 759.71 92.19C761.927 93.1791 764.327 93.6904 766.755 93.6904C769.183 93.6904 771.583 93.1791 773.8 92.19C776.422 91.0404 779.263 90.4745 782.126 90.5315C784.989 90.5885 787.805 91.267 790.38 92.52C791.851 93.2955 793.487 93.7037 795.15 93.71C801.87 93.71 807.47 86.94 808.63 78.01C807.288 77.0304 806.147 75.8013 805.27 74.39C801.35 68.02 795.22 63.91 788.35 63.91C781.48 63.91 775.47 67.91 771.53 74.22C770.355 76.1234 768.708 77.6914 766.75 78.7723C764.791 79.8532 762.587 80.4103 760.35 80.39H760.18C754.86 80.38 750.22 84.67 747.97 90.91Z" fill="#00B0FF"/>
<path opacity="0.1" d="M727.49 62.91L738.35 69.78L731.75 57.78C733.619 56.2922 735.931 55.4689 738.32 55.44H738.5C739.254 55.4486 740.006 55.3918 740.75 55.27L744.43 57.61L742.85 54.74C745.469 53.8502 747.742 52.1608 749.35 49.91L755.94 54.09L751.77 46.52C755.63 41.89 760.77 39.05 766.54 39.05C773.39 39.05 779.54 43.13 783.44 49.48C784.606 51.3774 786.254 52.9321 788.216 53.986C790.178 55.0399 792.384 55.5554 794.61 55.48H794.97C802.54 55.48 808.67 64.05 808.67 74.64C808.67 85.23 802.54 93.79 794.97 93.79C793.307 93.7826 791.671 93.3744 790.2 92.6C787.625 91.346 784.809 90.6677 781.945 90.6125C779.082 90.5572 776.241 91.1262 773.62 92.28C771.402 93.2655 769.002 93.7747 766.575 93.7747C764.148 93.7747 761.748 93.2655 759.53 92.28C756.927 91.1505 754.112 90.5945 751.275 90.6497C748.438 90.705 745.647 91.3701 743.09 92.6C741.631 93.3569 740.013 93.7546 738.37 93.76C730.81 93.76 724.67 85.19 724.67 74.61C724.617 70.5355 725.586 66.5127 727.49 62.91V62.91Z" fill="#00B0FF"/>
<path opacity="0.1" d="M615.63 776.88C679.143 776.88 730.63 767.926 730.63 756.88C730.63 745.834 679.143 736.88 615.63 736.88C552.117 736.88 500.63 745.834 500.63 756.88C500.63 767.926 552.117 776.88 615.63 776.88Z" fill="#00B0FF"/>
<path d="M555.44 661.88L377.25 659.59L377.78 655.02L386.39 579.63H542.88L554.39 655.02L555.27 660.74L555.44 661.88Z" fill="#D0D2D5"/>
<path opacity="0.1" d="M555.27 660.74H466.35L377.25 659.59L377.78 655.02H554.39L555.27 660.74Z" fill="black"/>
<path d="M584 656.17H347.55V661.88H584V656.17Z" fill="#D0D2D5"/>
<path d="M809.59 126.83C809.603 122.89 808.052 119.105 805.277 116.308C802.502 113.51 798.73 111.929 794.79 111.91H134.47C132.517 111.919 130.585 112.313 128.785 113.069C126.984 113.824 125.35 114.927 123.976 116.315C122.601 117.702 121.514 119.347 120.775 121.154C120.036 122.962 119.661 124.897 119.67 126.85V527.1H809.59V126.83Z" fill="#3F3D56"/>
<path d="M119.67 523.1V569.98C119.67 573.905 121.229 577.67 124.005 580.445C126.78 583.221 130.545 584.78 134.47 584.78H794.79C798.715 584.78 802.48 583.221 805.255 580.445C808.031 577.67 809.59 573.905 809.59 569.98V523.1H119.67Z" fill="#D0D2D5"/>
<path d="M784.46 137.01H148.23V496.82H784.46V137.01Z" fill="white"/>
<path d="M468.06 566.99C470.396 566.993 472.702 566.464 474.804 565.443C476.905 564.423 478.747 562.937 480.19 561.1C480.629 560.541 481.029 559.953 481.39 559.34L472.92 557.91L482.07 557.97C482.947 556.062 483.426 553.994 483.475 551.895C483.525 549.795 483.146 547.708 482.36 545.76L470.09 552.12L481.41 543.8C480.347 541.973 478.919 540.383 477.216 539.131C475.513 537.879 473.57 536.99 471.509 536.52C469.448 536.05 467.312 536.009 465.234 536.399C463.157 536.79 461.181 537.603 459.431 538.789C457.681 539.975 456.193 541.508 455.061 543.293C453.928 545.079 453.175 547.078 452.848 549.166C452.52 551.255 452.626 553.388 453.158 555.434C453.69 557.481 454.637 559.395 455.94 561.06V561.06C457.378 562.904 459.216 564.396 461.316 565.423C463.416 566.45 465.722 566.986 468.06 566.99V566.99Z" fill="#00B0FF"/>
<path opacity="0.1" d="M483.48 584.77L554.57 656.17L543.66 584.77H483.48Z" fill="black"/>
<path opacity="0.1" d="M784.65 137.05H147.73V158.07H784.65V137.05Z" fill="#444053"/>
<path opacity="0.3" d="M560.19 140.71H369.45C369.13 140.71 368.87 140.97 368.87 141.29V152.92C368.87 153.24 369.13 153.5 369.45 153.5H560.19C560.51 153.5 560.77 153.24 560.77 152.92V141.29C560.77 140.97 560.51 140.71 560.19 140.71Z" fill="#00B0FF"/>
<path d="M555.07 148.43H554.6L554.43 148.28C555.012 147.581 555.33 146.7 555.33 145.79C555.324 145.043 555.097 144.315 554.678 143.697C554.258 143.079 553.665 142.599 552.974 142.318C552.282 142.037 551.522 141.967 550.791 142.117C550.059 142.267 549.388 142.631 548.863 143.161C548.338 143.692 547.982 144.367 547.839 145.1C547.697 145.833 547.775 146.592 548.064 147.28C548.352 147.969 548.838 148.557 549.46 148.97C550.083 149.383 550.813 149.602 551.56 149.6C552.471 149.597 553.352 149.275 554.05 148.69L554.22 148.84V149.31L557.15 152.24L558.02 151.36L555.07 148.43ZM551.56 148.43C551.037 148.432 550.526 148.279 550.091 147.99C549.655 147.701 549.315 147.289 549.114 146.807C548.912 146.325 548.859 145.794 548.959 145.281C549.06 144.768 549.311 144.297 549.68 143.927C550.048 143.557 550.519 143.304 551.031 143.202C551.544 143.099 552.075 143.151 552.558 143.35C553.041 143.55 553.454 143.888 553.744 144.322C554.035 144.757 554.19 145.267 554.19 145.79C554.193 146.137 554.126 146.48 553.995 146.801C553.864 147.122 553.671 147.414 553.426 147.659C553.182 147.905 552.891 148.099 552.57 148.232C552.25 148.364 551.907 148.431 551.56 148.43V148.43Z" fill="#3F3D56"/>
<path opacity="0.8" d="M159.18 151.41C161.306 151.41 163.03 149.686 163.03 147.56C163.03 145.434 161.306 143.71 159.18 143.71C157.054 143.71 155.33 145.434 155.33 147.56C155.33 149.686 157.054 151.41 159.18 151.41Z" fill="#FA5959"/>
<path opacity="0.8" d="M169.77 151.41C171.896 151.41 173.62 149.686 173.62 147.56C173.62 145.434 171.896 143.71 169.77 143.71C167.644 143.71 165.92 145.434 165.92 147.56C165.92 149.686 167.644 151.41 169.77 151.41Z" fill="#FED253"/>
<path opacity="0.8" d="M180.37 151.41C182.496 151.41 184.22 149.686 184.22 147.56C184.22 145.434 182.496 143.71 180.37 143.71C178.244 143.71 176.52 145.434 176.52 147.56C176.52 149.686 178.244 151.41 180.37 151.41Z" fill="#8CCF4D"/>
<path d="M500.05 291.4C491.32 279.8 478.67 272.48 464.59 272.48C450.51 272.48 437.86 279.8 429.13 291.4C431.06 296.134 433.916 300.435 437.53 304.05C441.996 308.514 447.498 311.804 453.544 313.627C459.59 315.449 465.994 315.748 472.183 314.495C478.373 313.243 484.156 310.479 489.019 306.449C493.881 302.419 497.67 297.249 500.05 291.4V291.4Z" fill="#00B0FF"/>
<path d="M422.76 297.19C423.308 297.587 423.898 297.923 424.52 298.19C431.22 311.74 445.1 322.11 461.03 322.98V387.23C448.98 386.51 439.33 380.44 431.22 370.97C430.52 371.5 430 371.98 429.52 372.43C428.847 373.068 428.376 373.89 428.168 374.793C427.96 375.697 428.023 376.642 428.35 377.51C428.79 378.705 428.904 379.996 428.681 381.25C428.457 382.504 427.905 383.676 427.079 384.645C426.253 385.615 425.185 386.348 423.982 386.768C422.78 387.188 421.488 387.282 420.238 387.038C418.988 386.794 417.825 386.222 416.869 385.381C415.913 384.539 415.198 383.459 414.797 382.25C414.396 381.041 414.324 379.747 414.588 378.501C414.852 377.256 415.443 376.102 416.3 375.16C416.558 374.877 416.839 374.616 417.14 374.38C417.313 374.222 417.505 374.084 417.71 373.97C418.81 369.99 421.42 366.4 425.66 363.11C420.888 354.955 417.969 345.85 417.11 336.44C416.492 336.446 415.874 336.486 415.26 336.56C414.426 336.672 413.639 337.011 412.985 337.54C412.33 338.069 411.834 338.768 411.55 339.56C411.088 340.788 410.299 341.867 409.268 342.679C408.238 343.49 407.004 344.005 405.702 344.166C404.4 344.327 403.078 344.128 401.881 343.592C400.683 343.056 399.655 342.202 398.908 341.123C398.162 340.044 397.724 338.782 397.643 337.472C397.563 336.162 397.842 334.855 398.451 333.693C399.06 332.531 399.975 331.557 401.098 330.878C402.221 330.199 403.508 329.84 404.82 329.84C405.111 329.845 405.401 329.865 405.69 329.9C406.764 329.127 407.956 328.533 409.22 328.14C411.688 327.368 414.254 326.954 416.84 326.91C417.095 320.239 418.356 313.645 420.58 307.35C418.964 306.432 417.441 305.36 416.03 304.15C414.655 302.922 413.528 301.442 412.71 299.79C412.277 298.955 411.614 298.261 410.8 297.79C410.173 297.413 409.601 296.952 409.1 296.42C408.211 295.462 407.601 294.279 407.335 292.999C407.069 291.719 407.157 290.391 407.59 289.158C408.023 287.925 408.785 286.833 409.793 286.001C410.801 285.169 412.017 284.627 413.31 284.435C414.603 284.243 415.924 284.408 417.13 284.911C418.336 285.415 419.382 286.238 420.155 287.292C420.928 288.347 421.398 289.592 421.515 290.894C421.633 292.196 421.392 293.505 420.82 294.68C421.268 295.653 421.931 296.511 422.76 297.19Z" fill="#00B0FF"/>
<path d="M681 745.22C680.419 744.299 679.685 743.484 678.83 742.81C674.46 738.68 672.43 732.62 671.35 726.68C670.27 720.74 669.96 714.68 668.23 708.87C667.289 705.891 666.112 702.992 664.71 700.2C663.71 698.06 662.45 693.87 660.62 692.37C660.261 692.059 659.826 691.849 659.36 691.76C658.496 689.923 657.264 688.282 655.74 686.94C652.88 684.35 649.39 682.29 647.48 678.94C646.955 677.778 646.308 676.675 645.55 675.65C644.26 674.23 642.22 673.65 641.03 672.15C639.48 670.21 639.83 667.43 640.03 664.96C640.23 662.49 640.03 659.53 637.89 658.23C636.61 657.44 634.96 657.52 633.63 656.82C631.63 655.82 630.84 653.3 630.88 651.05C630.92 648.8 631.62 646.61 631.8 644.36C632.36 637.2 627.64 630.08 629.46 623.14C630.15 620.51 631.73 618.23 632.9 615.78C633.308 614.965 633.643 614.115 633.9 613.24C637.02 614.477 640.299 615.268 643.64 615.59C638.13 603.23 639.53 588.87 636.96 575.59L637.29 575.14C639.886 571.716 641.359 567.574 641.51 563.28C641.51 558.34 639.2 553.72 638.16 548.88C637.27 544.77 637.31 540.47 636.16 536.43C635.362 533.919 634.303 531.499 633 529.21C631.753 526.897 630.443 524.62 629.07 522.38C627.79 518.14 626.507 513.9 625.22 509.66C623.42 503.71 621.57 497.66 618.07 492.52C616.79 490.64 616.4 486.82 614.43 485.68C612.83 484.852 611.016 484.535 609.23 484.77C606.45 483.21 604.01 480.96 603.66 477.88C603.625 477.207 603.693 476.533 603.86 475.88H604.2C608.6 475.48 610.83 471.6 613.12 468.2C616.82 462.7 615.41 455.26 613.12 449C612.552 447.024 611.524 445.211 610.12 443.71C606.91 440.71 601.83 441.37 597.69 439.92C596.3 439.44 595 438.71 593.58 438.37C590.83 437.73 587.95 438.63 585.43 439.9C582.91 441.17 580.56 442.81 577.92 443.81C575.28 444.81 572.02 445.6 571.37 448.31C571.188 449.223 571.264 450.168 571.59 451.04C572.198 452.779 573.265 454.32 574.68 455.5C573.556 457.818 572.948 460.351 572.898 462.927C572.848 465.502 573.357 468.058 574.391 470.417C575.424 472.776 576.957 474.884 578.883 476.593C580.81 478.303 583.084 479.574 585.55 480.32C586.31 481.54 587.02 482.78 587.67 484.05C588.83 486.29 589.81 488.93 589.41 491.33C588.687 492.099 588.018 492.917 587.41 493.78C584.54 497.78 582.91 502.47 581.41 507.15C579.395 513.126 577.781 519.229 576.58 525.42C574.14 530.61 571.16 535.57 569.39 541.02C566.221 541.024 563.066 540.6 560.01 539.76L551.57 537.85C548.63 537.18 545.57 536.46 543.27 534.52C542.05 533.52 541.1 532.19 539.86 531.2C538.62 530.21 536.13 529.05 534.77 529.87C534.521 530.021 534.29 530.199 534.08 530.4C532.84 527.89 531.66 525.4 530.22 522.97C528.15 519.57 525.07 516.46 521.17 515.81C518.787 515.427 516.349 515.994 514.38 517.39C512.1 519.01 510.67 522.39 512.38 524.67C512.807 525.177 513.272 525.652 513.77 526.09C514.928 527.424 515.962 528.859 516.86 530.38C520.083 534.905 524.905 538.036 530.35 539.14L530 540.14C529.29 542.22 527.78 544.73 528.16 546.89L565.7 559.74C568.108 560.717 570.664 561.282 573.26 561.41C574.273 561.402 575.28 561.267 576.26 561.01V562.93V563.01C576.36 576.2 574.26 589.3 573.87 602.48C573.8 604.89 573.87 607.48 575.39 609.36C577.09 611.42 580.11 611.83 582.74 611.36C583.373 611.253 583.993 611.113 584.6 610.94C585.49 614.258 586.131 617.637 586.52 621.05L589 638.91C589.319 640.738 589.45 642.595 589.39 644.45C589.1 648.64 586.89 652.39 585.29 656.26C583.69 660.13 582.74 664.76 584.84 668.38C585.5 669.5 586.41 670.45 587 671.61C587.75 673.406 588.091 675.346 588 677.29C588.153 682.677 588.3 688.07 588.44 693.47C588.004 693.398 587.556 693.487 587.18 693.72C585.1 695.34 585.33 703.05 585.18 705.44C585.02 709.44 585.18 713.52 584.96 717.56C584.7 723.005 583.824 728.402 582.35 733.65C581.99 735.356 581.202 736.942 580.06 738.26C578.891 739.277 577.495 740.001 575.99 740.37C571.008 741.93 565.798 742.64 560.58 742.47C558.47 742.4 556.27 742.2 554.31 743C552.35 743.8 550.77 746 551.48 748C552.09 749.68 553.94 750.48 555.61 751.11C559.425 752.454 563.107 754.147 566.61 756.17C567.958 757.089 569.38 757.895 570.86 758.58C572.279 759.09 573.747 759.452 575.24 759.66L592.97 762.72C596.6 763.34 600.97 763.72 603.28 760.72C604.53 759.1 604.71 756.9 604.65 754.84C604.55 750.84 603.75 746.77 604.27 742.77C604.665 740.405 605.288 738.085 606.13 735.84C607.897 730.593 609.67 725.35 611.45 720.11C613.23 714.85 615.03 709.54 615.72 704.02C615.97 702.02 615.95 699.74 614.42 698.49C614.033 698.173 613.583 697.941 613.1 697.81C613.04 692.99 612.41 688.16 612.68 683.34C612.75 682.14 612.87 680.94 612.97 679.73C613.897 680.611 614.725 681.59 615.44 682.65C617.15 685.33 617.78 688.87 620.39 690.65C622.61 692.17 625.9 692.09 627.46 694.29C627.961 695.135 628.338 696.048 628.58 697C629.485 699.358 630.844 701.515 632.58 703.35C633.176 705.545 634.004 707.67 635.05 709.69C636.523 712.803 637.99 715.907 639.45 719C640.951 722.339 642.62 725.6 644.45 728.77C645.847 730.766 646.974 732.938 647.8 735.23C649.21 740.17 646.91 745.59 643.27 749.23C639.63 752.87 634.83 754.96 630.1 756.91C629.602 757.079 629.145 757.351 628.76 757.71C628.35 758.196 628.133 758.815 628.15 759.45C628.15 761.76 630.05 763.74 632.23 764.45C634.458 765.049 636.794 765.134 639.06 764.7C651.84 763.15 664.58 760.03 675.88 753.82C677.57 753.019 679.068 751.863 680.27 750.43C680.851 749.708 681.225 748.843 681.354 747.926C681.482 747.008 681.36 746.073 681 745.22V745.22Z" fill="url(#paint0_linear)"/>
<path d="M626.99 520.97C629.123 524.243 631.123 527.597 632.99 531.03C634.298 533.301 635.36 535.704 636.16 538.2C637.32 542.2 637.29 546.47 638.16 550.55C639.16 555.35 641.5 559.93 641.5 564.85C641.347 569.113 639.873 573.223 637.28 576.61C634.695 579.968 631.736 583.021 628.46 585.71C620.909 566.147 616.69 545.457 615.98 524.5C615.88 521.6 615.86 518.61 616.92 515.9C617.57 514.2 620.69 509.54 622.7 511.37C623.43 512.04 623.62 515.06 624.07 516.07C624.913 517.778 625.889 519.416 626.99 520.97V520.97Z" fill="#2F2E41"/>
<path opacity="0.1" d="M626.99 520.97C629.123 524.243 631.123 527.597 632.99 531.03C634.298 533.301 635.36 535.704 636.16 538.2C637.32 542.2 637.29 546.47 638.16 550.55C639.16 555.35 641.5 559.93 641.5 564.85C641.347 569.113 639.873 573.223 637.28 576.61C634.695 579.968 631.736 583.021 628.46 585.71C620.909 566.147 616.69 545.457 615.98 524.5C615.88 521.6 615.86 518.61 616.92 515.9C617.57 514.2 620.69 509.54 622.7 511.37C623.43 512.04 623.62 515.06 624.07 516.07C624.913 517.778 625.889 519.416 626.99 520.97V520.97Z" fill="black"/>
<path d="M363.35 384.54C355.44 392.44 354.49 395.92 349.74 397.49C344.99 399.06 327.9 407.91 333.27 417.72L347.71 427.26L348.13 427.54L350.34 434.18L328.5 473.06C328.5 473.06 292.5 456.6 288.97 480.95C285.44 505.3 287.68 511.95 286.73 524.95C285.78 537.95 287.04 541.71 283.87 541.71C280.7 541.71 279.45 533.17 279.45 533.17C279.45 533.17 279.25 532.78 278.9 532.05C274.19 522.26 242.22 450.39 293.43 400.99C293.43 400.99 317.15 399.43 322.86 372.23C326.8 353.43 340.58 355.05 349.74 358.88C352.717 360.047 355.491 361.677 357.96 363.71C360.182 365.813 362.157 368.162 363.85 370.71C366.46 374.83 367.88 380 363.35 384.54Z" fill="#D0D2D5"/>
<path opacity="0.1" d="M348.13 427.54L350.34 434.18L328.5 473.06C328.5 473.06 292.5 456.6 288.97 480.95C285.44 505.3 287.68 511.95 286.73 524.95C285.78 537.95 287.04 541.71 283.87 541.71C280.7 541.71 279.45 533.17 279.45 533.17C279.45 533.17 279.25 532.78 278.9 532.05C277.31 519.89 269.25 448.76 298.47 452.54C298.47 452.54 322.18 463.62 325.97 459.2C328.97 455.7 342.29 435.57 347.71 427.31L348.13 427.54Z" fill="black"/>
<path opacity="0.1" d="M363.85 370.65L349.41 387.06C349.41 387.06 332.64 409.5 329.16 408.55C328.118 408.323 327.056 408.199 325.99 408.18C324.829 408.091 323.717 407.675 322.783 406.98C321.849 406.285 321.131 405.339 320.712 404.253C320.294 403.167 320.192 401.984 320.418 400.842C320.644 399.7 321.189 398.645 321.99 397.8C327.71 391.8 338.25 380.41 338.94 377.88C339.63 375.35 346.34 364.26 349.7 358.83C352.677 359.997 355.451 361.627 357.92 363.66C360.155 365.758 362.144 368.103 363.85 370.65V370.65Z" fill="black"/>
<path d="M772.41 606.74C769.96 611.64 757.41 630.02 751.92 638.05L749.35 641.83C749.35 641.83 748.35 648.47 731.96 640.24C715.57 632.01 330.48 469.52 330.48 469.52L327.87 461.68L346.87 433.23L768.94 596.3C768.94 596.3 775.58 600.41 772.41 606.74Z" fill="#454B69"/>
<path opacity="0.1" d="M751.92 638.05L749.35 641.83C749.35 641.83 748.35 648.47 731.96 640.24C715.57 632.01 330.48 469.52 330.48 469.52L327.87 461.68L751.92 638.05Z" fill="black"/>
<path d="M519.64 531.91C515.73 531.27 511.39 531.58 508.35 534.12C506.513 535.676 505.351 537.884 505.11 540.28C504.85 543.05 506.46 546.34 509.24 546.55C509.909 546.558 510.578 546.514 511.24 546.42C512.996 546.412 514.75 546.56 516.48 546.86C519.886 547.18 523.319 546.679 526.491 545.398C529.663 544.118 532.481 542.095 534.71 539.5C537.1 536.5 533.95 535.2 531.13 534.6C527.27 533.78 523.5 532.53 519.64 531.91Z" fill="#FBBEBE"/>
<path d="M586.52 622.22L589 639.84C589.316 641.659 589.443 643.505 589.38 645.35C589.09 649.5 586.88 653.22 585.29 657.06C583.7 660.9 582.73 665.5 584.84 669.06C585.49 670.17 586.4 671.12 586.99 672.27C587.74 674.048 588.081 675.972 587.99 677.9L588.67 702.9C596.389 703.427 604.137 703.383 611.85 702.77C612.152 702.784 612.449 702.692 612.69 702.51C612.893 702.252 612.996 701.928 612.98 701.6C613.32 695.75 612.3 689.89 612.63 684.04C612.75 681.9 613.05 679.77 613.09 677.62C613.21 668.91 608.91 660.38 610.21 651.77C610.618 649.597 611.152 647.45 611.81 645.34C615.92 630.34 615.05 614.58 614.14 599.09C614.155 598.841 614.085 598.593 613.94 598.39C613.792 598.242 613.605 598.141 613.4 598.1C609.025 596.787 604.399 596.547 599.911 597.4C595.424 598.253 591.208 600.174 587.62 603C586.53 603.88 583.78 604.73 583.06 605.78C582.06 607.24 583.37 608.7 583.95 610.25C585.235 614.136 586.096 618.149 586.52 622.22V622.22Z" fill="#3F3D56"/>
<path opacity="0.1" d="M586.52 622.22L589 639.84C589.316 641.659 589.443 643.505 589.38 645.35C589.09 649.5 586.88 653.22 585.29 657.06C583.7 660.9 582.73 665.5 584.84 669.06C585.49 670.17 586.4 671.12 586.99 672.27C587.74 674.048 588.081 675.972 587.99 677.9L588.67 702.9C596.389 703.427 604.137 703.383 611.85 702.77C612.152 702.784 612.449 702.692 612.69 702.51C612.893 702.252 612.996 701.928 612.98 701.6C613.32 695.75 612.3 689.89 612.63 684.04C612.75 681.9 613.05 679.77 613.09 677.62C613.21 668.91 608.91 660.38 610.21 651.77C610.618 649.597 611.152 647.45 611.81 645.34C615.92 630.34 615.05 614.58 614.14 599.09C614.155 598.841 614.085 598.593 613.94 598.39C613.792 598.242 613.605 598.141 613.4 598.1C609.025 596.787 604.399 596.547 599.911 597.4C595.424 598.253 591.208 600.174 587.62 603C586.53 603.88 583.78 604.73 583.06 605.78C582.06 607.24 583.37 608.7 583.95 610.25C585.235 614.136 586.096 618.149 586.52 622.22V622.22Z" fill="black"/>
<path d="M632.89 616.91C631.72 619.34 630.15 621.6 629.45 624.21C627.63 631.1 632.34 638.21 631.78 645.27C631.6 647.5 630.91 649.67 630.86 651.9C630.81 654.13 631.63 656.61 633.61 657.64C634.94 658.32 636.61 658.25 637.86 659.03C639.97 660.32 640.21 663.25 640 665.71C639.79 668.17 639.44 670.92 641 672.84C642.19 674.33 644.23 674.91 645.51 676.32C646.272 677.332 646.919 678.425 647.44 679.58C649.35 682.92 652.84 684.96 655.7 687.58C658.56 690.2 660.98 694.04 659.7 697.67C658.76 700.33 656.12 701.97 653.58 703.22C648.946 705.511 644.054 707.239 639.01 708.37C638.469 708.534 637.896 708.565 637.34 708.46C636.777 708.254 636.275 707.911 635.88 707.46C632.93 704.57 629.88 701.54 628.52 697.65C628.278 696.707 627.901 695.804 627.4 694.97C625.84 692.78 622.55 692.86 620.33 691.35C617.73 689.58 617.1 686.07 615.4 683.42C613.7 680.77 611.21 679.19 609.4 676.86C606.34 672.98 605.59 667.8 603.4 663.37C602.47 661.49 601.28 659.73 600.54 657.77C599.793 655.421 599.333 652.99 599.17 650.53C597.76 638.85 594.17 627.09 596.43 615.53C596.93 612.99 597.7 610.53 598.02 607.91C598.57 603.38 597.7 598.74 598.37 594.22C598.386 593.653 598.531 593.096 598.792 592.592C599.054 592.088 599.425 591.65 599.88 591.31C600.42 591.067 601.008 590.948 601.6 590.96C607.528 590.643 613.472 590.777 619.38 591.36C622.38 591.65 625.74 592.26 627.54 594.71C629.07 596.81 628.99 599.62 629.48 602.17C630.09 605.31 631.68 607.02 633.35 609.48C635.02 611.94 634.12 614.37 632.89 616.91Z" fill="#3F3D56"/>
<path d="M609.82 698.17C611.4 698.17 613.15 698.07 614.37 699.07C615.89 700.32 615.91 702.61 615.67 704.56C614.97 710.04 613.18 715.31 611.39 720.56L606.07 736.17C605.228 738.397 604.605 740.702 604.21 743.05C603.69 747.05 604.49 751.05 604.59 755.05C604.59 757.05 604.46 759.27 603.21 760.88C600.95 763.79 596.54 763.45 592.91 762.88L575.2 759.88C573.706 759.681 572.237 759.322 570.82 758.81C569.342 758.128 567.921 757.328 566.57 756.42C563.065 754.418 559.383 752.744 555.57 751.42C553.91 750.8 552.05 750.01 551.45 748.34C550.74 746.34 552.32 744.14 554.28 743.34C556.24 742.54 558.43 742.74 560.55 742.8C565.763 742.966 570.968 742.263 575.95 740.72C577.451 740.352 578.842 739.632 580.01 738.62C581.196 737.287 582.004 735.661 582.35 733.91C583.859 728.698 584.758 723.329 585.03 717.91C585.24 713.91 585.1 709.91 585.26 705.91C585.36 703.54 585.13 695.91 587.21 694.28C588.8 693.06 595.34 696.43 597.49 696.92C601.532 697.846 605.674 698.266 609.82 698.17V698.17Z" fill="#2F2E41"/>
<path d="M668.16 709.29C669.89 715.02 670.16 721.08 671.28 726.97C672.4 732.86 674.38 738.87 678.75 742.97C679.6 743.645 680.334 744.456 680.92 745.37C681.289 746.226 681.414 747.168 681.282 748.091C681.149 749.014 680.765 749.882 680.17 750.6C678.963 752.022 677.466 753.171 675.78 753.97C664.49 760.13 651.78 763.24 638.97 764.78C636.706 765.204 634.377 765.119 632.15 764.53C629.97 763.79 628.04 761.83 628.08 759.53C628.059 758.899 628.273 758.282 628.68 757.8C629.069 757.444 629.529 757.175 630.03 757.01C634.75 755.07 639.54 752.96 643.19 749.38C646.84 745.8 649.13 740.38 647.72 735.52C646.885 733.244 645.752 731.088 644.35 729.11C642.522 725.966 640.853 722.732 639.35 719.42L634.95 710.19C633.66 707.49 632.36 704.71 632.14 701.73C637.667 701.978 643.187 701.093 648.36 699.13C650.775 698.145 653.024 696.796 655.03 695.13C656.73 693.71 658.28 691.06 660.57 692.91C662.41 694.39 663.57 698.56 664.65 700.67C666.053 703.443 667.227 706.326 668.16 709.29Z" fill="#2F2E41"/>
<path d="M603.68 480.1C604.12 483.94 607.84 486.47 611.39 487.99L588.92 495.16C590.37 492.38 589.2 488.98 587.76 486.16C586.587 483.927 585.25 481.785 583.76 479.75C583.54 479.44 583.29 479.05 583.45 478.69C583.593 478.455 583.817 478.28 584.08 478.2C588.7 476.14 593.46 474.01 598.51 473.26C599.97 473.05 602.73 472.47 603.82 473.95C604.91 475.43 603.47 478.33 603.68 480.1Z" fill="#FBBEBE"/>
<path opacity="0.1" d="M603.68 480.1C604.12 483.94 607.84 486.47 611.39 487.99L588.92 495.16C590.37 492.38 589.2 488.98 587.76 486.16C586.587 483.927 585.25 481.785 583.76 479.75C583.54 479.44 583.29 479.05 583.45 478.69C583.593 478.455 583.817 478.28 584.08 478.2C588.7 476.14 593.46 474.01 598.51 473.26C599.97 473.05 602.73 472.47 603.82 473.95C604.91 475.43 603.47 478.33 603.68 480.1Z" fill="black"/>
<path d="M590.62 483.21C600.351 483.21 608.24 475.321 608.24 465.59C608.24 455.859 600.351 447.97 590.62 447.97C580.889 447.97 573 455.859 573 465.59C573 475.321 580.889 483.21 590.62 483.21Z" fill="#FBBEBE"/>
<path d="M575.35 610.59C577.06 612.64 580.07 613.04 582.7 612.59C588.85 611.59 593.88 607.06 599.9 605.43C607.28 603.43 615.09 606 622.06 609.15C629.03 612.3 635.96 616.15 643.58 616.69C636.69 601.33 640.63 582.85 634.04 567.36C632.43 563.57 630.18 559.92 629.82 555.82C629.37 550.73 631.91 545.82 632.3 540.76C632.66 536.25 631.3 531.76 630 527.46C628.393 522.18 626.787 516.9 625.18 511.62C623.38 505.71 621.53 499.7 618.04 494.62C616.75 492.75 616.36 488.96 614.4 487.83C610.12 485.36 603.63 488.47 598.99 488.64C594.35 488.81 590.12 492.11 587.41 495.84C584.54 499.78 582.91 504.47 581.41 509.11C579.022 516.019 577.238 523.122 576.08 530.34C575.93 531.42 575.8 532.5 575.7 533.59C574.7 543.86 576.16 554.19 576.24 564.51V564.58C576.34 577.67 574.24 590.68 573.85 603.76C573.81 606.15 573.87 608.76 575.35 610.59Z" fill="#2F2E41"/>
<path opacity="0.1" d="M576.27 564.52C579.72 563.65 582.84 561.42 585.52 558.98C587.841 556.902 589.903 554.552 591.66 551.98C593.872 548.522 595.649 544.804 596.95 540.91C600.652 530.497 603.005 519.651 603.95 508.64C604.21 505.64 604.29 502.42 602.5 500.04C601.495 498.751 600.083 497.839 598.495 497.455C596.906 497.07 595.234 497.234 593.75 497.92C591.39 499.07 589.86 501.4 588.44 503.63C585.63 508.05 582.8 512.53 580.99 517.45C580.19 519.63 579.6 521.87 578.82 524.06C578.027 526.22 577.112 528.333 576.08 530.39C575.93 531.47 575.8 532.55 575.7 533.64C574.77 543.91 576.19 554.2 576.27 564.52Z" fill="black"/>
<path d="M602.45 498.11C604.24 500.49 604.16 503.74 603.91 506.7C602.967 517.712 600.614 528.557 596.91 538.97C595.62 542.897 593.843 546.646 591.62 550.13C589.86 552.7 587.798 555.05 585.48 557.13C582.08 560.23 577.94 563 573.33 563.04C570.735 562.918 568.18 562.36 565.77 561.39L528.22 548.61C527.84 546.47 529.35 543.97 530.06 541.91L532.06 535.98C532.63 534.34 533.29 532.57 534.78 531.68C536.27 530.79 538.63 532.01 539.87 533C541.11 533.99 542.05 535.29 543.27 536.3C545.58 538.22 548.63 538.94 551.57 539.6L560 541.49C563.056 542.327 566.211 542.747 569.38 542.74C571.73 535.56 576.2 529.24 578.73 522.12C579.51 519.94 580.1 517.69 580.91 515.51C582.71 510.59 585.55 506.12 588.36 501.69C589.77 499.47 591.3 497.14 593.67 495.98C595.158 495.285 596.838 495.118 598.434 495.505C600.029 495.892 601.446 496.811 602.45 498.11V498.11Z" fill="#2F2E41"/>
<path d="M596.24 469.57C596.107 468.411 595.746 467.29 595.18 466.27C594.885 465.759 594.436 465.356 593.896 465.119C593.357 464.881 592.755 464.822 592.18 464.95C590.42 465.5 589.83 468.22 587.99 468.31C586.75 468.37 585.86 467.11 585.47 465.93C585.08 464.75 584.87 463.4 583.94 462.57C583.292 462.086 582.549 461.745 581.76 461.57C577.49 460.22 573.08 457.73 571.66 453.48C571.326 452.617 571.246 451.677 571.43 450.77C572.08 448.08 575.43 447.27 577.98 446.3C580.53 445.33 582.98 443.67 585.48 442.41C587.98 441.15 590.88 440.26 593.63 440.9C595.025 441.339 596.397 441.85 597.74 442.43C601.88 443.87 606.95 443.2 610.16 446.19C611.563 447.673 612.591 449.47 613.16 451.43C615.4 457.65 616.82 465.03 613.11 470.49C610.82 473.86 608.6 477.71 604.2 478.12C599.08 478.55 597.05 473.91 596.24 469.57Z" fill="#2F2E41"/>
<g opacity="0.1">
<path opacity="0.1" d="M588.42 463.81C588.03 462.63 587.82 461.28 586.9 460.45C586.252 459.966 585.509 459.625 584.72 459.45C580.44 458.1 576.04 455.61 574.61 451.36C574.284 450.495 574.208 449.556 574.39 448.65C574.488 448.223 574.668 447.819 574.92 447.46C573.29 448.17 571.87 449.11 571.47 450.77C571.286 451.677 571.366 452.617 571.7 453.48C573.12 457.73 577.53 460.22 581.8 461.57C582.589 461.745 583.332 462.086 583.98 462.57C584.91 463.4 585.11 464.74 585.51 465.93C585.91 467.12 586.79 468.37 588.03 468.31C589.27 468.25 589.87 467.12 590.66 466.17C589.57 466.03 588.78 464.91 588.42 463.81Z" fill="black"/>
<path opacity="0.1" d="M607.14 475.97C602 476.44 599.97 471.76 599.14 467.45C599.03 466.294 598.69 465.172 598.14 464.15C597.844 463.64 597.394 463.238 596.855 463.001C596.316 462.764 595.715 462.704 595.14 462.83C594.228 463.272 593.461 463.966 592.93 464.83C593.389 464.874 593.832 465.023 594.224 465.266C594.615 465.509 594.946 465.839 595.19 466.23C595.756 467.25 596.117 468.371 596.25 469.53C597.06 473.84 599.09 478.53 604.25 478.05C606.289 477.825 608.172 476.848 609.53 475.31C608.776 475.662 607.968 475.885 607.14 475.97V475.97Z" fill="black"/>
</g>
<path d="M813.11 661.99C830.943 661.99 845.4 659.21 845.4 655.78C845.4 652.35 830.943 649.57 813.11 649.57C795.277 649.57 780.82 652.35 780.82 655.78C780.82 659.21 795.277 661.99 813.11 661.99Z" fill="#00B0FF"/>
<path d="M812.57 658.06C814.647 658.06 816.33 655.857 816.33 653.14C816.33 650.423 814.647 648.22 812.57 648.22C810.493 648.22 808.81 650.423 808.81 653.14C808.81 655.857 810.493 658.06 812.57 658.06Z" fill="#3F3D56"/>
<path d="M812.57 652.04C814.647 652.04 816.33 649.837 816.33 647.12C816.33 644.403 814.647 642.2 812.57 642.2C810.493 642.2 808.81 644.403 808.81 647.12C808.81 649.837 810.493 652.04 812.57 652.04Z" fill="#3F3D56"/>
<path d="M812.57 646.03C814.647 646.03 816.33 643.827 816.33 641.11C816.33 638.393 814.647 636.19 812.57 636.19C810.493 636.19 808.81 638.393 808.81 641.11C808.81 643.827 810.493 646.03 812.57 646.03Z" fill="#3F3D56"/>
<path d="M812.57 640.01C814.647 640.01 816.33 637.807 816.33 635.09C816.33 632.373 814.647 630.17 812.57 630.17C810.493 630.17 808.81 632.373 808.81 635.09C808.81 637.807 810.493 640.01 812.57 640.01Z" fill="#3F3D56"/>
<path d="M812.57 633.99C814.647 633.99 816.33 631.787 816.33 629.07C816.33 626.353 814.647 624.15 812.57 624.15C810.493 624.15 808.81 626.353 808.81 629.07C808.81 631.787 810.493 633.99 812.57 633.99Z" fill="#3F3D56"/>
<path d="M812.57 627.98C814.647 627.98 816.33 625.777 816.33 623.06C816.33 620.343 814.647 618.14 812.57 618.14C810.493 618.14 808.81 620.343 808.81 623.06C808.81 625.777 810.493 627.98 812.57 627.98Z" fill="#3F3D56"/>
<path d="M812.57 621.96C814.647 621.96 816.33 619.757 816.33 617.04C816.33 614.323 814.647 612.12 812.57 612.12C810.493 612.12 808.81 614.323 808.81 617.04C808.81 619.757 810.493 621.96 812.57 621.96Z" fill="#3F3D56"/>
<path d="M826.64 575.91C827.153 575.256 827.621 574.568 828.04 573.85L818.16 572.23L828.85 572.3C829.87 570.069 830.427 567.653 830.485 565.2C830.544 562.747 830.103 560.308 829.19 558.03L814.85 565.47L828.07 555.75C826.829 553.615 825.163 551.757 823.174 550.294C821.185 548.83 818.916 547.791 816.508 547.242C814.101 546.693 811.606 546.645 809.179 547.102C806.752 547.558 804.445 548.509 802.401 549.896C800.357 551.282 798.621 553.074 797.299 555.16C795.978 557.246 795.1 559.582 794.72 562.022C794.34 564.462 794.466 566.954 795.091 569.344C795.715 571.733 796.825 573.968 798.35 575.91C797.547 576.926 796.856 578.025 796.29 579.19L809.12 585.86L795.44 581.27C794.485 584.104 794.25 587.131 794.758 590.078C795.266 593.025 796.501 595.8 798.35 598.15C796.264 600.806 794.967 603.995 794.607 607.352C794.248 610.71 794.84 614.101 796.316 617.139C797.793 620.176 800.094 622.736 802.956 624.528C805.819 626.319 809.128 627.269 812.505 627.269C815.882 627.269 819.191 626.319 822.054 624.528C824.916 622.736 827.217 620.176 828.694 617.139C830.17 614.101 830.762 610.71 830.403 607.352C830.043 603.995 828.746 600.806 826.66 598.15C829.159 594.976 830.517 591.054 830.517 587.015C830.517 582.976 829.159 579.054 826.66 575.88L826.64 575.91Z" fill="#00B0FF"/>
<path opacity="0.1" d="M794.47 587.01C794.468 591.055 795.836 594.981 798.35 598.15C796.264 600.806 794.967 603.995 794.607 607.352C794.248 610.71 794.84 614.101 796.316 617.139C797.793 620.176 800.094 622.736 802.956 624.528C805.819 626.319 809.128 627.269 812.505 627.269C815.882 627.269 819.191 626.319 822.054 624.528C824.916 622.736 827.217 620.176 828.694 617.139C830.17 614.101 830.762 610.71 830.403 607.352C830.043 603.995 828.746 600.806 826.66 598.15C829.05 595.08 794.47 584.99 794.47 587.01Z" fill="black"/>
<defs>
<linearGradient id="paint0_linear" x1="601.882" y1="766.347" x2="588.646" y2="438.223" gradientUnits="userSpaceOnUse">
<stop stop-color="#808080" stop-opacity="0.25"/>
<stop offset="0.54" stop-color="#808080" stop-opacity="0.12"/>
<stop offset="1" stop-color="#808080" stop-opacity="0.1"/>
</linearGradient>
</defs>
</svg>
